# xmcd
#
# Track frame offsets:
#	150
#	14288
#	32664
#	49631
#	64774
#	82068
#	100948
#	108253
#	127778
#	144724
#	164614
#
# Disc length: 2457 seconds
# Revision: 0
# Processed by: cddbd v1.5.2PL0 Copyright (c) Steve Scherf et al.
# Submitted via: dBpowerAMP V12.0
#
DISCID=8d09970b
DTITLE=Frill - Second Hand Experience
DYEAR=2001
DGENRE=Pop/Rock
TTITLE0=Buzzards
TTITLE1=Your Disguise
TTITLE2=Penitentiary
TTITLE3=Give Up
TTITLE4=Sink
TTITLE5=1:19
TTITLE6=One Request
TTITLE7=Anyway
TTITLE8=Turned Into Shame
TTITLE9=Out Of The Shade
TTITLE10=Dogs
EXTD=
EXTT0=
EXTT1=
EXTT2=
EXTT3=
EXTT4=
EXTT5=
EXTT6=
EXTT7=
EXTT8=
EXTT9=
EXTT10=
PLAYORDER=
